<svg width="33" height="33" viewBox="0 0 33 33" fill="none" xmlns="http://www.w3.org/2000/svg">
<path d="M30.7083 33H22.4583C21.1924 33 20.1667 32.0532 20.1667 30.8846V23.2692C20.1667 22.3342 19.3463 21.5769 18.3333 21.5769H14.6667C13.6538 21.5769 12.8333 22.3342 12.8333 23.2692V30.8846C12.8333 32.0532 11.8076 33 10.5417 33H2.29167C1.02575 33 0 32.0532 0 30.8846V14.7341C0 12.7888 0.966167 10.9509 2.62075 9.74769L15.6484 0.271615C16.148 -0.0905385 16.852 -0.0905385 17.3507 0.271615L30.3802 9.74769C32.0347 10.9509 33 12.7879 33 14.7324V30.8846C33 32.0532 31.9743 33 30.7083 33Z" fill="white"/>
</svg>
