<svg width="45" height="45" viewBox="0 0 45 45" fill="none" xmlns="http://www.w3.org/2000/svg">
<path d="M20.625 13.125H24.375V16.875H20.625V13.125ZM20.625 20.625H24.375V31.875H20.625V20.625ZM22.5 3.75C12.15 3.75 3.75 12.15 3.75 22.5C3.75 32.85 12.15 41.25 22.5 41.25C32.85 41.25 41.25 32.85 41.25 22.5C41.25 12.15 32.85 3.75 22.5 3.75ZM22.5 37.5C14.2313 37.5 7.5 30.7688 7.5 22.5C7.5 14.2313 14.2313 7.5 22.5 7.5C30.7687 7.5 37.5 14.2313 37.5 22.5C37.5 30.7688 30.7687 37.5 22.5 37.5Z" fill="white"/>
</svg>
