<svg width="50" height="50" viewBox="0 0 50 50" fill="none" xmlns="http://www.w3.org/2000/svg">
<path d="M12.5 27.0833C12.5 23.6458 13.8958 20.5208 16.1667 18.25L13.2083 15.2917C10.2083 18.3125 8.33333 22.4792 8.33333 27.0833C8.33333 35.5833 14.6875 42.5834 22.9167 43.6042V39.3959C17.0208 38.3959 12.5 33.2708 12.5 27.0833ZM41.6667 27.0833C41.6667 17.875 34.2083 10.4167 25 10.4167C24.875 10.4167 24.75 10.4375 24.625 10.4375L26.8958 8.16668L23.9583 5.20834L16.6667 12.5L23.9583 19.7917L26.8958 16.8542L24.6458 14.6042C24.7708 14.6042 24.8958 14.5833 25 14.5833C31.8958 14.5833 37.5 20.1875 37.5 27.0833C37.5 33.2708 32.9792 38.3959 27.0833 39.3959V43.6042C35.3125 42.5834 41.6667 35.5833 41.6667 27.0833Z" fill="white"/>
<path d="M30.5 22.5167C29.3 22.5167 28.1667 22.9833 27.3583 23.7917L21.5 28.9917C20.9667 29.525 20.2583 29.8167 19.5 29.8167C17.9417 29.8167 16.675 28.5583 16.675 27C16.675 25.4417 17.9417 24.1833 19.5 24.1833C20.2583 24.1833 20.9667 24.475 21.5333 25.0417L22.475 25.875L23.7333 24.7583L22.6833 23.8333C21.8333 22.9833 20.7 22.5167 19.5 22.5167C17.0167 22.5167 15 24.5333 15 27C15 29.4667 17.0167 31.4833 19.5 31.4833C20.7 31.4833 21.8333 31.0167 22.6417 30.2083L28.5 25.0083C29.0333 24.475 29.7417 24.1833 30.5 24.1833C32.0583 24.1833 33.325 25.4417 33.325 27C33.325 28.5583 32.0583 29.8167 30.5 29.8167C29.75 29.8167 29.0333 29.525 28.4667 28.9583L27.5167 28.1167L26.2583 29.2333L27.3167 30.1667C28.1667 31.0083 29.2917 31.475 30.5 31.475C32.9833 31.475 35 29.4667 35 26.9917C35 24.5167 32.9833 22.5167 30.5 22.5167Z" fill="white"/>
</svg>
