<svg width="36" height="36" viewBox="0 0 36 36" fill="none" xmlns="http://www.w3.org/2000/svg">
<path d="M30 4.5H28.5V3C28.5 2.175 27.825 1.5 27 1.5C26.175 1.5 25.5 2.175 25.5 3V4.5H10.5V3C10.5 2.175 9.825 1.5 9 1.5C8.175 1.5 7.5 2.175 7.5 3V4.5H6C4.35 4.5 3 5.85 3 7.5V31.5C3 33.15 4.35 34.5 6 34.5H30C31.65 34.5 33 33.15 33 31.5V7.5C33 5.85 31.65 4.5 30 4.5ZM28.5 31.5H7.5C6.675 31.5 6 30.825 6 30V12H30V30C30 30.825 29.325 31.5 28.5 31.5Z" fill="white"/>
<path d="M8 16.5C8 17.33 8.67 18 9.5 18H14V20.5H10.5C9.67 20.5 9 21.17 9 22C9 22.83 9.67 23.5 10.5 23.5H14V26H9.5C8.67 26 8 26.67 8 27.5C8 28.33 8.67 29 9.5 29H14C15.66 29 17 27.66 17 26V24.1C17 22.94 16.06 22 14.9 22C16.06 22 17 21.06 17 19.9V18C17 16.34 15.66 15 14 15H9.5C8.67 15 8 15.67 8 16.5ZM25 18V26H21V18H25ZM25 15H21C19.34 15 18 16.34 18 18V26C18 27.66 19.34 29 21 29H25C26.66 29 28 27.66 28 26V18C28 16.34 26.66 15 25 15Z" fill="white"/>
</svg>
